<mxfile host="app.diagrams.net" agent="Mozilla/5.0 (Windows NT 10.0; Win64; x64; rv:131.0) Gecko/20100101 Firefox/131.0" version="24.8.1">
  <diagram name="Page-1" id="13e1069c-82ec-6db2-03f1-153e76fe0fe0">
    <mxGraphModel dx="880" dy="470" grid="1" gridSize="10" guides="1" tooltips="1" connect="1" arrows="1" fold="1" page="1" pageScale="1" pageWidth="1100" pageHeight="850" background="#ffffff" math="0" shadow="0">
      <root>
        <mxCell id="0" />
        <mxCell id="1" parent="0" />
        <mxCell id="7baba1c4bc27f4b0-3" value="Base de datos" style="shape=umlLifeline;perimeter=lifelinePerimeter;whiteSpace=wrap;html=1;container=1;collapsible=0;recursiveResize=0;outlineConnect=0;rounded=1;shadow=0;comic=0;labelBackgroundColor=none;strokeWidth=1;fontFamily=Verdana;fontSize=12;align=center;" parent="1" vertex="1">
          <mxGeometry x="340" y="80" width="100" height="1000" as="geometry" />
        </mxCell>
        <mxCell id="XYuEak0liH888FXmT6iu-11" value="" style="html=1;points=[[0,0,0,0,5],[0,1,0,0,-5],[1,0,0,0,5],[1,1,0,0,-5]];perimeter=orthogonalPerimeter;outlineConnect=0;targetShapes=umlLifeline;portConstraint=eastwest;newEdgeStyle={&quot;curved&quot;:0,&quot;rounded&quot;:0};" parent="7baba1c4bc27f4b0-3" vertex="1">
          <mxGeometry x="45" y="790" width="10" height="80" as="geometry" />
        </mxCell>
        <mxCell id="7baba1c4bc27f4b0-8" value="Admin" style="shape=umlLifeline;perimeter=lifelinePerimeter;whiteSpace=wrap;html=1;container=1;collapsible=0;recursiveResize=0;outlineConnect=0;rounded=1;shadow=0;comic=0;labelBackgroundColor=none;strokeWidth=1;fontFamily=Verdana;fontSize=12;align=center;" parent="1" vertex="1">
          <mxGeometry x="100" y="80" width="100" height="1000" as="geometry" />
        </mxCell>
        <mxCell id="7baba1c4bc27f4b0-9" value="" style="html=1;points=[];perimeter=orthogonalPerimeter;rounded=0;shadow=0;comic=0;labelBackgroundColor=none;strokeWidth=1;fontFamily=Verdana;fontSize=12;align=center;" parent="7baba1c4bc27f4b0-8" vertex="1">
          <mxGeometry x="45" y="100" width="10" height="160" as="geometry" />
        </mxCell>
        <mxCell id="XYuEak0liH888FXmT6iu-2" value="" style="endArrow=classic;html=1;rounded=0;dashed=1;" parent="7baba1c4bc27f4b0-8" target="hNQLCdhJePGUMtkADW94-11" edge="1">
          <mxGeometry width="50" height="50" relative="1" as="geometry">
            <mxPoint x="50" y="160" as="sourcePoint" />
            <mxPoint x="100" y="110" as="targetPoint" />
          </mxGeometry>
        </mxCell>
        <mxCell id="XYuEak0liH888FXmT6iu-6" value="" style="html=1;points=[[0,0,0,0,5],[0,1,0,0,-5],[1,0,0,0,5],[1,1,0,0,-5]];perimeter=orthogonalPerimeter;outlineConnect=0;targetShapes=umlLifeline;portConstraint=eastwest;newEdgeStyle={&quot;curved&quot;:0,&quot;rounded&quot;:0};" parent="7baba1c4bc27f4b0-8" vertex="1">
          <mxGeometry x="45" y="345" width="10" height="80" as="geometry" />
        </mxCell>
        <mxCell id="XYuEak0liH888FXmT6iu-24" value="" style="html=1;points=[[0,0,0,0,5],[0,1,0,0,-5],[1,0,0,0,5],[1,1,0,0,-5]];perimeter=orthogonalPerimeter;outlineConnect=0;targetShapes=umlLifeline;portConstraint=eastwest;newEdgeStyle={&quot;curved&quot;:0,&quot;rounded&quot;:0};" parent="7baba1c4bc27f4b0-8" vertex="1">
          <mxGeometry x="45" y="900" width="10" height="80" as="geometry" />
        </mxCell>
        <mxCell id="652f_ZYVGCwjFdwTah18-10" value="Controlador de usuarios" style="shape=umlLifeline;perimeter=lifelinePerimeter;whiteSpace=wrap;html=1;container=1;collapsible=0;recursiveResize=0;outlineConnect=0;rounded=1;shadow=0;comic=0;labelBackgroundColor=none;strokeWidth=1;fontFamily=Verdana;fontSize=12;align=center;" parent="1" vertex="1">
          <mxGeometry x="670" y="90" width="100" height="990" as="geometry" />
        </mxCell>
        <mxCell id="hNQLCdhJePGUMtkADW94-23" value="" style="html=1;points=[[0,0,0,0,5],[0,1,0,0,-5],[1,0,0,0,5],[1,1,0,0,-5]];perimeter=orthogonalPerimeter;outlineConnect=0;targetShapes=umlLifeline;portConstraint=eastwest;newEdgeStyle={&quot;curved&quot;:0,&quot;rounded&quot;:0};" parent="652f_ZYVGCwjFdwTah18-10" vertex="1">
          <mxGeometry x="45" y="790" width="10" height="80" as="geometry" />
        </mxCell>
        <mxCell id="XYuEak0liH888FXmT6iu-25" value="" style="html=1;points=[[0,0,0,0,5],[0,1,0,0,-5],[1,0,0,0,5],[1,1,0,0,-5]];perimeter=orthogonalPerimeter;outlineConnect=0;targetShapes=umlLifeline;portConstraint=eastwest;newEdgeStyle={&quot;curved&quot;:0,&quot;rounded&quot;:0};" parent="652f_ZYVGCwjFdwTah18-10" vertex="1">
          <mxGeometry x="45" y="900" width="10" height="80" as="geometry" />
        </mxCell>
        <mxCell id="hNQLCdhJePGUMtkADW94-11" value="Middleware &quot;solo admin&quot;" style="shape=umlLifeline;perimeter=lifelinePerimeter;whiteSpace=wrap;html=1;container=1;collapsible=0;recursiveResize=0;outlineConnect=0;rounded=1;shadow=0;comic=0;labelBackgroundColor=none;strokeWidth=1;fontFamily=Verdana;fontSize=12;align=center;" parent="1" vertex="1">
          <mxGeometry x="530" y="90" width="100" height="990" as="geometry" />
        </mxCell>
        <mxCell id="hNQLCdhJePGUMtkADW94-12" value="" style="html=1;points=[];perimeter=orthogonalPerimeter;rounded=0;shadow=0;comic=0;labelBackgroundColor=none;strokeWidth=1;fontFamily=Verdana;fontSize=12;align=center;" parent="hNQLCdhJePGUMtkADW94-11" vertex="1">
          <mxGeometry x="45" y="85" width="10" height="155" as="geometry" />
        </mxCell>
        <mxCell id="XYuEak0liH888FXmT6iu-5" value="&lt;div&gt;Permite ingreso&amp;nbsp;&lt;/div&gt;&lt;div&gt;de datos hacia el controlador&lt;/div&gt;&lt;div&gt;de usuarios&lt;br&gt;&lt;/div&gt;" style="text;html=1;align=center;verticalAlign=middle;resizable=0;points=[];autosize=1;strokeColor=none;fillColor=none;" parent="hNQLCdhJePGUMtkADW94-11" vertex="1">
          <mxGeometry x="-145" y="150" width="180" height="60" as="geometry" />
        </mxCell>
        <mxCell id="XYuEak0liH888FXmT6iu-7" value="" style="html=1;points=[[0,0,0,0,5],[0,1,0,0,-5],[1,0,0,0,5],[1,1,0,0,-5]];perimeter=orthogonalPerimeter;outlineConnect=0;targetShapes=umlLifeline;portConstraint=eastwest;newEdgeStyle={&quot;curved&quot;:0,&quot;rounded&quot;:0};" parent="hNQLCdhJePGUMtkADW94-11" vertex="1">
          <mxGeometry x="45" y="335" width="10" height="80" as="geometry" />
        </mxCell>
        <mxCell id="XYuEak0liH888FXmT6iu-3" value="Llena formulario&lt;br&gt;con info de nuevo &lt;br&gt;usuario para crear" style="text;html=1;align=center;verticalAlign=middle;resizable=0;points=[];autosize=1;strokeColor=none;fillColor=none;" parent="1" vertex="1">
          <mxGeometry x="200" y="173" width="120" height="60" as="geometry" />
        </mxCell>
        <mxCell id="XYuEak0liH888FXmT6iu-4" value="" style="endArrow=classic;html=1;rounded=0;exitX=0.2;exitY=0.813;exitDx=0;exitDy=0;exitPerimeter=0;dashed=1;" parent="1" source="hNQLCdhJePGUMtkADW94-12" target="7baba1c4bc27f4b0-8" edge="1">
          <mxGeometry width="50" height="50" relative="1" as="geometry">
            <mxPoint x="510" y="300" as="sourcePoint" />
            <mxPoint x="560" y="250" as="targetPoint" />
          </mxGeometry>
        </mxCell>
        <mxCell id="XYuEak0liH888FXmT6iu-8" value="alt" style="shape=umlFrame;whiteSpace=wrap;html=1;pointerEvents=0;" parent="1" vertex="1">
          <mxGeometry x="110" y="380" width="520" height="220" as="geometry" />
        </mxCell>
        <mxCell id="XYuEak0liH888FXmT6iu-9" value="" style="endArrow=classic;html=1;rounded=0;dashed=1;" parent="1" source="XYuEak0liH888FXmT6iu-7" target="XYuEak0liH888FXmT6iu-6" edge="1">
          <mxGeometry width="50" height="50" relative="1" as="geometry">
            <mxPoint x="410" y="510" as="sourcePoint" />
            <mxPoint x="460" y="460" as="targetPoint" />
          </mxGeometry>
        </mxCell>
        <mxCell id="XYuEak0liH888FXmT6iu-10" value="&lt;div&gt;Si usuario&lt;/div&gt;&lt;div&gt;no es administrador&lt;/div&gt;&lt;div&gt;redirige a pÃ¡gina de error&lt;/div&gt;&lt;div&gt;404&lt;br&gt;&lt;/div&gt;" style="text;html=1;align=center;verticalAlign=middle;resizable=0;points=[];autosize=1;strokeColor=none;fillColor=none;" parent="1" vertex="1">
          <mxGeometry x="400" y="390" width="160" height="70" as="geometry" />
        </mxCell>
        <mxCell id="XYuEak0liH888FXmT6iu-14" value="" style="endArrow=classic;html=1;rounded=0;dashed=1;" parent="1" source="hNQLCdhJePGUMtkADW94-23" target="XYuEak0liH888FXmT6iu-11" edge="1">
          <mxGeometry width="50" height="50" relative="1" as="geometry">
            <mxPoint x="1385" y="1010" as="sourcePoint" />
            <mxPoint x="819.5" y="1010" as="targetPoint" />
          </mxGeometry>
        </mxCell>
        <mxCell id="XYuEak0liH888FXmT6iu-17" value="alt" style="shape=umlFrame;whiteSpace=wrap;html=1;pointerEvents=0;" parent="1" vertex="1">
          <mxGeometry x="100" y="640" width="710" height="200" as="geometry" />
        </mxCell>
        <mxCell id="XYuEak0liH888FXmT6iu-13" value="&lt;div&gt;Recibe usuarios&lt;/div&gt;&lt;div&gt;enviados en el&lt;/div&gt;&lt;div&gt;formulario y crea&lt;/div&gt;&lt;div&gt;usuario en BDD&lt;br&gt;&lt;/div&gt;" style="text;html=1;align=center;verticalAlign=middle;resizable=0;points=[];autosize=1;strokeColor=none;fillColor=none;" parent="1" vertex="1">
          <mxGeometry x="595" y="850" width="110" height="70" as="geometry" />
        </mxCell>
        <mxCell id="XYuEak0liH888FXmT6iu-18" value="" style="html=1;points=[[0,0,0,0,5],[0,1,0,0,-5],[1,0,0,0,5],[1,1,0,0,-5]];perimeter=orthogonalPerimeter;outlineConnect=0;targetShapes=umlLifeline;portConstraint=eastwest;newEdgeStyle={&quot;curved&quot;:0,&quot;rounded&quot;:0};" parent="1" vertex="1">
          <mxGeometry x="715" y="700" width="10" height="80" as="geometry" />
        </mxCell>
        <mxCell id="XYuEak0liH888FXmT6iu-19" value="" style="html=1;points=[[0,0,0,0,5],[0,1,0,0,-5],[1,0,0,0,5],[1,1,0,0,-5]];perimeter=orthogonalPerimeter;outlineConnect=0;targetShapes=umlLifeline;portConstraint=eastwest;newEdgeStyle={&quot;curved&quot;:0,&quot;rounded&quot;:0};" parent="1" vertex="1">
          <mxGeometry x="145" y="700" width="10" height="80" as="geometry" />
        </mxCell>
        <mxCell id="XYuEak0liH888FXmT6iu-22" value="" style="endArrow=open;endFill=1;endSize=12;html=1;rounded=0;dashed=1;" parent="1" source="XYuEak0liH888FXmT6iu-18" target="XYuEak0liH888FXmT6iu-19" edge="1">
          <mxGeometry width="160" relative="1" as="geometry">
            <mxPoint x="550" y="720" as="sourcePoint" />
            <mxPoint x="710" y="720" as="targetPoint" />
          </mxGeometry>
        </mxCell>
        <mxCell id="XYuEak0liH888FXmT6iu-23" value="Recibe datos&lt;br&gt;&lt;div&gt;enviados del&lt;/div&gt;&lt;div&gt;formulario, si son&lt;/div&gt;&lt;div&gt;errÃ³neos enviara&lt;/div&gt;&lt;div&gt;mensajes de error&lt;/div&gt;" style="text;html=1;align=center;verticalAlign=middle;resizable=0;points=[];autosize=1;strokeColor=none;fillColor=none;" parent="1" vertex="1">
          <mxGeometry x="585" y="648" width="130" height="90" as="geometry" />
        </mxCell>
        <mxCell id="XYuEak0liH888FXmT6iu-27" value="" style="endArrow=open;endFill=1;endSize=12;html=1;rounded=0;dashed=1;" parent="1" source="XYuEak0liH888FXmT6iu-25" target="7baba1c4bc27f4b0-8" edge="1">
          <mxGeometry width="160" relative="1" as="geometry">
            <mxPoint x="610" y="1010" as="sourcePoint" />
            <mxPoint x="770" y="1010" as="targetPoint" />
          </mxGeometry>
        </mxCell>
        <mxCell id="XYuEak0liH888FXmT6iu-28" value="&lt;div&gt;EnvÃ­a alerta de que&lt;/div&gt;&lt;div&gt;el usuario fue&lt;/div&gt;&lt;div&gt;creado exitosamente&lt;br&gt;&lt;/div&gt;" style="text;html=1;align=center;verticalAlign=middle;resizable=0;points=[];autosize=1;strokeColor=none;fillColor=none;" parent="1" vertex="1">
          <mxGeometry x="580" y="973" width="140" height="60" as="geometry" />
        </mxCell>
      </root>
    </mxGraphModel>
  </diagram>
</mxfile>
